<svg width="800" height="553" viewBox="0 0 800 553" fill="none" xmlns="http://www.w3.org/2000/svg">
<g clip-path="url(#clip0_1567_2022)">
<path d="M785.855 0H13.6144C9.97417 0.0353855 6.49661 1.5132 3.94459 4.10928C1.39257 6.70536 -0.0255653 10.2077 0.00135288 13.848V538.508C-0.019707 542.144 1.40124 545.64 3.95283 548.23C6.50442 550.82 9.97865 552.293 13.6144 552.327H785.855C789.491 552.293 792.965 550.82 795.517 548.23C798.068 545.64 799.489 542.144 799.468 538.508V13.848C799.495 10.208 798.077 6.70601 795.526 4.10999C792.974 1.51396 789.497 0.0359117 785.857 0H785.855Z" fill="#090814"/>
<path d="M763.033 2.74304H14.4334C10.9306 2.74966 7.57352 4.14566 5.09882 6.62468C2.62411 9.1037 1.23392 12.4632 1.2334 15.966V516.973C1.23842 520.472 2.63077 523.827 5.10516 526.301C7.57956 528.776 10.9341 530.168 14.4334 530.173H763.033C766.533 530.168 769.887 528.776 772.362 526.301C774.836 523.827 776.228 520.472 776.233 516.973V15.967C776.233 12.4654 774.844 9.10673 772.371 6.62785C769.898 4.14898 766.542 2.75224 763.04 2.74403L763.033 2.74304Z" fill="white"/>
<path d="M564.723 212.339H564.718C563.878 212.339 563.2 212.107 563.203 211.823L563.963 133.076C563.963 132.792 564.646 132.563 565.484 132.563H565.489C566.329 132.563 567.007 132.795 567.004 133.079L566.244 211.828C566.241 212.109 565.561 212.339 564.723 212.339Z" fill="#D6D6E3"/>
<path d="M370.082 396.136H370.077C369.237 396.136 368.559 395.836 368.562 395.469L369.322 296.403C369.322 296.037 370.005 295.74 370.843 295.74H370.848C371.688 295.74 372.366 296.04 372.363 296.407L371.603 395.472C371.6 395.84 370.92 396.136 370.082 396.136Z" fill="#D6D6E3"/>
<path d="M225.622 254.916H225.617C224.777 254.916 224.099 254.716 224.101 254.474L224.861 188.026C224.861 187.784 225.544 187.588 226.382 187.587H226.387C227.227 187.587 227.905 187.787 227.902 188.029L227.142 254.477C227.14 254.72 226.46 254.916 225.622 254.916Z" fill="#D6D6E3"/>
<path d="M162.833 316.045C165.761 300.235 183.733 292.945 198.302 294.182C219.117 295.952 236.488 309.656 255.861 316.116C265.223 319.238 275.295 320.952 285.105 319.155C292.839 317.562 300.009 313.942 305.883 308.665C317.147 299.038 324.762 285.909 336.034 276.292C342.062 270.864 349.687 267.535 357.766 266.803C367.712 266.142 377.452 269.513 386.166 274.031C403.485 283.006 417.666 297.287 436.11 304.214C444.58 307.479 453.767 308.429 462.726 306.964C471.668 305.182 480.17 301.653 487.745 296.58C503.628 286.546 516.717 272.622 533.417 263.822C541.629 259.495 550.752 256.185 560.133 256.122C569.199 256.134 577.914 259.623 584.483 265.871C597.131 277.371 607.103 295.517 626.42 295.836C630.449 295.911 634.413 294.823 637.839 292.702C640.331 291.161 638.039 287.213 635.539 288.763C627.665 293.632 618.182 290.563 611.006 285.837C603.363 280.808 597.937 273.121 591.699 266.572C585.499 260.066 578.272 254.586 569.358 252.556C560.452 250.796 551.231 251.567 542.74 254.78C524.493 261.138 510.68 274.224 495.54 285.61C480.615 296.831 463.189 306.539 443.932 301.866C424.758 297.213 410.212 282.693 393.632 272.947C377.601 263.526 357.951 257.509 340.689 267.423C327.645 274.914 319.398 288.143 309.38 298.923C304.437 304.241 298.924 309.183 292.247 312.204C282.969 316.404 272.483 315.912 262.818 313.424C242.658 308.234 225.654 294.66 205.125 290.599C189.887 287.585 171.852 291.383 162.551 304.853C160.494 307.856 159.094 311.258 158.44 314.838C157.908 317.708 162.304 318.938 162.84 316.051L162.833 316.045Z" fill="#3F3D56"/>
<path d="M226.381 326.006C237.299 326.006 246.149 317.156 246.149 306.238C246.149 295.32 237.299 286.47 226.381 286.47C215.464 286.47 206.613 295.32 206.613 306.238C206.613 317.156 215.464 326.006 226.381 326.006Z" fill="#FDC700"/>
<path d="M368.561 284.188C379.479 284.188 388.329 275.338 388.329 264.42C388.329 253.502 379.479 244.652 368.561 244.652C357.643 244.652 348.793 253.502 348.793 264.42C348.793 275.338 357.643 284.188 368.561 284.188Z" fill="#FDC700"/>
<path d="M563.203 270.502C574.12 270.502 582.971 261.652 582.971 250.734C582.971 239.816 574.12 230.966 563.203 230.966C552.285 230.966 543.435 239.816 543.435 250.734C543.435 261.652 552.285 270.502 563.203 270.502Z" fill="#FDC700"/>
<path d="M247.23 167.226H203.87C202.416 167.229 200.979 166.908 199.664 166.286C198.35 165.665 197.19 164.758 196.27 163.632C195.327 162.481 194.652 161.135 194.295 159.691C193.937 158.246 193.906 156.741 194.203 155.283C197.686 137.949 197.686 120.096 194.203 102.762C193.906 101.304 193.937 99.7982 194.295 98.3539C194.652 96.9095 195.327 95.5629 196.27 94.412C197.171 93.3099 198.302 92.4177 199.583 91.7975C200.864 91.1773 202.265 90.8441 203.689 90.821C216.871 84.365 231.57 84.365 247.382 90.821C249.74 90.8581 252.008 91.736 253.777 93.2967C255.545 94.8575 256.699 96.9984 257.029 99.334C259.706 119.035 259.706 139.009 257.029 158.71C256.695 161.072 255.52 163.234 253.72 164.798C251.92 166.363 249.615 167.225 247.23 167.226Z" fill="#E6E6E6"/>
<path d="M589.654 121.251H546.294C543.909 121.249 541.605 120.387 539.805 118.823C538.005 117.258 536.829 115.097 536.494 112.736C533.817 93.0342 533.817 73.0608 536.494 53.359C536.825 51.0259 537.977 48.8872 539.742 47.3267C541.508 45.7663 543.772 44.8864 546.128 44.845C559.771 38.73 574.462 38.731 589.804 44.845C591.233 44.864 592.64 45.1955 593.927 45.8162C595.214 46.4369 596.35 47.3318 597.254 48.438C598.197 49.5888 598.872 50.9352 599.23 52.3794C599.587 53.8236 599.618 55.3292 599.321 56.787C595.838 74.1208 595.838 91.9743 599.321 109.308C599.619 110.766 599.587 112.272 599.23 113.716C598.872 115.16 598.197 116.506 597.254 117.657C596.334 118.783 595.175 119.69 593.86 120.311C592.545 120.933 591.109 121.254 589.654 121.251Z" fill="#FDC700"/>
<path d="M585.113 67.4861H548.613C548.008 67.4861 547.428 67.2457 547 66.818C546.572 66.3902 546.332 65.81 546.332 65.2051C546.332 64.6001 546.572 64.0199 547 63.5921C547.428 63.1644 548.008 62.9241 548.613 62.9241H585.113C585.718 62.9241 586.298 63.1644 586.726 63.5921C587.154 64.0199 587.394 64.6001 587.394 65.2051C587.394 65.81 587.154 66.3902 586.726 66.818C586.298 67.2457 585.718 67.4861 585.113 67.4861Z" fill="white"/>
<path d="M585.113 85.734H548.613C548.008 85.734 547.428 85.4937 547 85.0659C546.572 84.6381 546.332 84.0579 546.332 83.453C546.332 82.848 546.572 82.2678 547 81.8401C547.428 81.4123 548.008 81.172 548.613 81.172H585.113C585.718 81.172 586.298 81.4123 586.726 81.8401C587.154 82.2678 587.394 82.848 587.394 83.453C587.394 84.0579 587.154 84.6381 586.726 85.0659C586.298 85.4937 585.718 85.734 585.113 85.734Z" fill="white"/>
<path d="M585.113 103.982H548.613C548.008 103.982 547.428 103.742 547 103.314C546.572 102.886 546.332 102.306 546.332 101.701C546.332 101.096 546.572 100.516 547 100.088C547.428 99.6603 548.008 99.42 548.613 99.42H585.113C585.718 99.42 586.298 99.6603 586.726 100.088C587.154 100.516 587.394 101.096 587.394 101.701C587.394 102.306 587.154 102.886 586.726 103.314C586.298 103.742 585.718 103.982 585.113 103.982Z" fill="white"/>
<path d="M247.893 110.467H211.393C210.788 110.467 210.208 110.227 209.78 109.799C209.353 109.371 209.112 108.791 209.112 108.186C209.112 107.581 209.353 107.001 209.78 106.573C210.208 106.145 210.788 105.905 211.393 105.905H247.893C248.498 105.905 249.078 106.145 249.506 106.573C249.934 107.001 250.174 107.581 250.174 108.186C250.174 108.791 249.934 109.371 249.506 109.799C249.078 110.227 248.498 110.467 247.893 110.467Z" fill="white"/>
<path d="M247.893 128.714H211.393C210.788 128.714 210.208 128.474 209.78 128.046C209.353 127.618 209.112 127.038 209.112 126.433C209.112 125.828 209.353 125.248 209.78 124.82C210.208 124.392 210.788 124.152 211.393 124.152H247.893C248.498 124.152 249.078 124.392 249.506 124.82C249.934 125.248 250.174 125.828 250.174 126.433C250.174 127.038 249.934 127.618 249.506 128.046C249.078 128.474 248.498 128.714 247.893 128.714Z" fill="white"/>
<path d="M247.893 146.962H211.393C210.788 146.962 210.208 146.722 209.78 146.294C209.353 145.866 209.112 145.286 209.112 144.681C209.112 144.076 209.353 143.496 209.78 143.068C210.208 142.64 210.788 142.4 211.393 142.4H247.893C248.498 142.4 249.078 142.64 249.506 143.068C249.934 143.496 250.174 144.076 250.174 144.681C250.174 145.286 249.934 145.866 249.506 146.294C249.078 146.722 248.498 146.962 247.893 146.962Z" fill="white"/>
<path d="M393.631 493.097H350.271C347.886 493.095 345.582 492.233 343.782 490.669C341.981 489.104 340.806 486.943 340.471 484.582C337.794 464.881 337.794 444.907 340.471 425.206C340.801 422.878 341.947 420.744 343.706 419.184C345.465 417.624 347.721 416.74 350.071 416.691C364.19 409.109 378.905 409.107 393.813 416.691C395.235 416.715 396.636 417.049 397.916 417.669C399.196 418.289 400.326 419.181 401.226 420.283C402.169 421.434 402.844 422.78 403.201 424.224C403.559 425.669 403.59 427.174 403.293 428.632C399.81 445.966 399.81 463.821 403.293 481.155C403.59 482.613 403.559 484.118 403.201 485.563C402.844 487.007 402.169 488.353 401.226 489.504C400.306 490.629 399.147 491.535 397.834 492.157C396.52 492.778 395.084 493.099 393.631 493.097Z" fill="#FDC700"/>
<path d="M390.832 435.191H354.332C353.727 435.191 353.147 434.951 352.719 434.523C352.291 434.095 352.051 433.515 352.051 432.91C352.051 432.305 352.291 431.725 352.719 431.297C353.147 430.869 353.727 430.629 354.332 430.629H390.832C391.437 430.629 392.017 430.869 392.445 431.297C392.872 431.725 393.113 432.305 393.113 432.91C393.113 433.515 392.872 434.095 392.445 434.523C392.017 434.951 391.437 435.191 390.832 435.191Z" fill="white"/>
<path d="M390.832 453.439H354.332C353.727 453.439 353.147 453.199 352.719 452.771C352.291 452.343 352.051 451.763 352.051 451.158C352.051 450.553 352.291 449.973 352.719 449.545C353.147 449.117 353.727 448.877 354.332 448.877H390.832C391.437 448.877 392.017 449.117 392.445 449.545C392.872 449.973 393.113 450.553 393.113 451.158C393.113 451.763 392.872 452.343 392.445 452.771C392.017 453.199 391.437 453.439 390.832 453.439Z" fill="white"/>
<path d="M390.832 471.686H354.332C353.727 471.686 353.147 471.446 352.719 471.018C352.291 470.59 352.051 470.01 352.051 469.405C352.051 468.8 352.291 468.22 352.719 467.792C353.147 467.364 353.727 467.124 354.332 467.124H390.832C391.437 467.124 392.017 467.364 392.445 467.792C392.872 468.22 393.113 468.8 393.113 469.405C393.113 470.01 392.872 470.59 392.445 471.018C392.017 471.446 391.437 471.686 390.832 471.686Z" fill="white"/>
<path d="M694.559 324.031L706.659 329.765C701.694 322.836 697.416 312.015 695.126 303.405C691.248 311.426 684.997 321.24 678.809 327.105L691.602 323.814C683.719 362.449 654.069 390.185 620.115 390.185V393.127C655.585 393.123 686.51 364.225 694.559 324.031Z" fill="#3F3D56"/>
<path d="M656.847 276.163H733.328C736.572 276.163 739.211 280.53 739.211 285.897C739.211 291.264 736.572 295.631 733.328 295.631H656.847C653.603 295.631 650.964 291.264 650.964 285.897C650.964 280.53 653.603 276.163 656.847 276.163Z" fill="#FDC700"/>
<path d="M625.572 428.289L591.097 458.941C588.962 460.836 586.162 461.806 583.313 461.639C580.463 461.472 577.796 460.181 575.897 458.05C561.569 446.671 549.816 433.85 541.336 419.183C539.441 417.048 538.471 414.248 538.638 411.399C538.805 408.549 540.095 405.882 542.227 403.983L576.698 373.331C578.833 371.436 581.632 370.466 584.482 370.633C587.332 370.8 589.999 372.091 591.898 374.222L626.459 413.089C628.354 415.224 629.324 418.024 629.157 420.873C628.99 423.723 627.699 426.39 625.568 428.289H625.572Z" fill="white"/>
<path d="M625.572 428.289L591.097 458.941C588.962 460.836 586.162 461.806 583.313 461.639C580.463 461.472 577.796 460.181 575.897 458.05C559.551 448.042 547.304 435.531 541.336 419.183C539.441 417.048 538.471 414.248 538.638 411.399C538.805 408.549 540.095 405.882 542.227 403.983L576.698 373.331C578.833 371.436 581.632 370.466 584.482 370.633C587.332 370.8 589.999 372.091 591.898 374.222L626.459 413.089C628.354 415.224 629.324 418.024 629.157 420.873C628.99 423.723 627.699 426.39 625.568 428.289H625.572ZM543.212 405.089C541.371 406.728 540.256 409.03 540.112 411.49C539.967 413.95 540.805 416.367 542.442 418.21C550.087 433.718 561.874 446.498 577.003 457.077C578.642 458.918 580.944 460.032 583.404 460.176C585.864 460.321 588.281 459.482 590.124 457.846L624.597 427.19C626.437 425.551 627.552 423.249 627.696 420.789C627.84 418.328 627.002 415.912 625.366 414.069L590.805 375.202C589.166 373.361 586.864 372.246 584.404 372.102C581.943 371.958 579.527 372.796 577.684 374.432L543.212 405.089Z" fill="#3F3D56"/>
<path d="M594.235 400.064L565.835 425.32C565.549 425.583 565.214 425.785 564.849 425.917C564.484 426.049 564.096 426.106 563.709 426.087C563.321 426.067 562.942 425.971 562.592 425.803C562.242 425.635 561.929 425.399 561.671 425.109C561.414 424.819 561.216 424.481 561.09 424.114C560.965 423.747 560.913 423.359 560.939 422.971C560.965 422.584 561.068 422.206 561.241 421.859C561.415 421.512 561.655 421.203 561.95 420.95L590.35 395.694C590.635 395.432 590.97 395.229 591.335 395.097C591.7 394.965 592.088 394.908 592.475 394.927C592.863 394.947 593.242 395.043 593.592 395.211C593.942 395.379 594.255 395.615 594.513 395.905C594.77 396.195 594.968 396.533 595.094 396.9C595.219 397.267 595.271 397.656 595.245 398.043C595.219 398.43 595.116 398.808 594.943 399.155C594.769 399.502 594.529 399.811 594.235 400.064Z" fill="#FDC700"/>
<path d="M604.989 412.152L576.589 437.408C576.302 437.666 575.968 437.865 575.604 437.993C575.241 438.121 574.855 438.176 574.471 438.154C574.086 438.133 573.709 438.035 573.362 437.868C573.015 437.7 572.704 437.466 572.448 437.178C572.192 436.89 571.995 436.554 571.869 436.189C571.743 435.825 571.691 435.44 571.715 435.055C571.738 434.67 571.838 434.294 572.007 433.948C572.177 433.602 572.413 433.292 572.703 433.038L601.103 407.782C601.389 407.52 601.724 407.317 602.089 407.185C602.454 407.053 602.841 406.996 603.229 407.015C603.616 407.035 603.996 407.131 604.346 407.299C604.695 407.467 605.008 407.703 605.266 407.993C605.524 408.283 605.721 408.621 605.847 408.988C605.973 409.355 606.024 409.744 605.998 410.131C605.972 410.518 605.87 410.896 605.696 411.243C605.523 411.59 605.282 411.899 604.988 412.152H604.989Z" fill="#FDC700"/>
<path d="M583.484 387.972L555.084 413.228C554.798 413.49 554.463 413.693 554.098 413.825C553.733 413.957 553.345 414.014 552.958 413.995C552.57 413.975 552.191 413.879 551.841 413.711C551.491 413.543 551.178 413.307 550.92 413.017C550.663 412.727 550.465 412.389 550.339 412.022C550.214 411.655 550.162 411.266 550.188 410.879C550.214 410.492 550.317 410.114 550.49 409.767C550.664 409.42 550.904 409.111 551.199 408.858L579.599 383.602C579.884 383.34 580.219 383.137 580.584 383.005C580.949 382.873 581.337 382.816 581.724 382.835C582.112 382.855 582.491 382.951 582.841 383.119C583.191 383.287 583.504 383.523 583.762 383.813C584.02 384.103 584.217 384.441 584.343 384.808C584.468 385.175 584.52 385.564 584.494 385.951C584.468 386.338 584.365 386.716 584.192 387.063C584.018 387.41 583.778 387.719 583.484 387.972Z" fill="#FDC700"/>
<path d="M118.629 283.145L125.534 278.691C122.702 284.073 120.261 292.479 118.955 299.168C116.743 292.937 113.177 285.313 109.647 280.759L116.947 283.316C112.447 253.304 95.536 231.758 76.167 231.758V229.473C96.397 229.473 114.038 251.921 118.629 283.145Z" fill="#3F3D56"/>
<path d="M57.7189 337.41H134.2C137.444 337.41 140.083 333.183 140.083 327.988C140.083 322.793 137.444 318.566 134.2 318.566H57.7189C54.4749 318.566 51.8359 322.793 51.8359 327.988C51.8359 333.183 54.4729 337.41 57.7189 337.41Z" fill="#FDC700"/>
<path d="M52.6448 218.218H98.7728C101.627 218.215 104.363 217.08 106.381 215.061C108.399 213.043 109.535 210.307 109.538 207.453V155.443C109.535 152.589 108.399 149.853 106.381 147.834C104.363 145.816 101.627 144.681 98.7728 144.678H52.6448C49.7913 144.682 47.0557 145.817 45.0383 147.836C43.0208 149.854 41.886 152.589 41.8828 155.443V207.454C41.8863 210.307 43.0212 213.043 45.0386 215.061C47.0561 217.079 49.7914 218.214 52.6448 218.218Z" fill="white"/>
<path d="M52.6448 218.218H98.7727C101.627 218.215 104.363 217.079 106.381 215.061C108.399 213.043 109.534 210.307 109.537 207.453V155.443C109.534 152.589 108.398 149.853 106.38 147.834C104.362 145.816 101.626 144.681 98.7717 144.678H52.6448C49.791 144.681 47.0552 145.817 45.0373 147.834C43.0194 149.852 41.8842 152.588 41.8807 155.442C36.7117 171.806 37.2367 189.242 41.8807 207.453C41.8839 210.307 43.019 213.043 45.0369 215.061C47.0548 217.079 49.7908 218.215 52.6448 218.218ZM98.7727 146.149C101.237 146.151 103.6 147.13 105.343 148.873C107.085 150.615 108.065 152.979 108.067 155.443V207.454C108.065 209.918 107.085 212.281 105.343 214.024C103.6 215.767 101.237 216.746 98.7727 216.748H52.6448C50.1803 216.746 47.8173 215.767 46.0747 214.024C44.332 212.281 43.3523 209.918 43.3507 207.454V155.443C43.3523 152.979 44.332 150.615 46.0747 148.873C47.8173 147.13 50.1803 146.151 52.6448 146.149H98.7727Z" fill="#3F3D56"/>
<path d="M57.3013 176.3H95.3083C96.0743 176.286 96.8042 175.972 97.3409 175.425C97.8776 174.878 98.1782 174.143 98.1782 173.377C98.1782 172.61 97.8776 171.875 97.3409 171.328C96.8042 170.781 96.0743 170.467 95.3083 170.453H57.3013C56.9128 170.446 56.5268 170.516 56.1658 170.66C55.8049 170.804 55.4761 171.018 55.1989 171.29C54.9216 171.562 54.7014 171.887 54.551 172.245C54.4007 172.603 54.3232 172.988 54.3232 173.377C54.3232 173.765 54.4007 174.15 54.551 174.508C54.7014 174.866 54.9216 175.191 55.1989 175.463C55.4761 175.735 55.8049 175.95 56.1658 176.093C56.5268 176.237 56.9128 176.307 57.3013 176.3Z" fill="#F2F2F2"/>
<path d="M57.3013 192.479H95.3083C96.0743 192.465 96.8042 192.151 97.3409 191.604C97.8776 191.057 98.1782 190.322 98.1782 189.555C98.1782 188.789 97.8776 188.054 97.3409 187.507C96.8042 186.96 96.0743 186.646 95.3083 186.632H57.3013C56.9128 186.625 56.5268 186.695 56.1658 186.839C55.8049 186.982 55.4761 187.197 55.1989 187.469C54.9216 187.741 54.7014 188.066 54.551 188.424C54.4007 188.782 54.3232 189.167 54.3232 189.555C54.3232 189.944 54.4007 190.329 54.551 190.687C54.7014 191.045 54.9216 191.37 55.1989 191.642C55.4761 191.914 55.8049 192.128 56.1658 192.272C56.5268 192.416 56.9128 192.486 57.3013 192.479Z" fill="#F2F2F2"/>
</g>
<defs>
<clipPath id="clip0_1567_2022">
<rect width="799.468" height="552.327" fill="white"/>
</clipPath>
</defs>
</svg>
