<svg width="891" height="612" viewBox="0 0 891 612" fill="none" xmlns="http://www.w3.org/2000/svg">
<g clip-path="url(#clip0_1567_1980)">
<path d="M312.076 549.793L312.356 548.681C312.418 548.437 318.722 524.104 337.752 510.891C356.783 497.678 381.785 500.275 382.035 500.303L383.174 500.429L382.895 501.541C382.833 501.785 376.528 526.117 357.498 539.331C338.467 552.544 313.465 549.947 313.216 549.919L312.076 549.793ZM338.893 512.534C322.803 523.705 316.1 543.128 314.622 548.024C319.728 548.348 340.283 548.848 356.357 537.687C372.43 526.528 379.145 507.096 380.628 502.197C375.519 501.874 354.966 501.374 338.893 512.534Z" fill="#F1F1F1"/>
<path d="M345.802 518.439C336.204 539.408 313.592 549.618 313.592 549.618C313.592 549.618 306.541 525.831 316.139 504.862C325.737 483.893 348.349 473.683 348.349 473.683C348.349 473.683 355.4 497.47 345.802 518.439Z" fill="#F1F1F1"/>
<path d="M102.159 542.211C91.8096 510.381 90.9624 474.208 108.454 444.678C115.889 432.124 126.34 421.284 139.157 414.198C153.942 406.024 171.01 403.351 187.706 402.982C224.013 402.181 260.072 410.951 296.382 406.417C312.672 404.383 328.922 399.82 342.886 390.971C354.96 383.319 365.44 372.612 371.625 359.627C377.651 347.235 379.014 333.088 375.466 319.773C372.034 307.18 363.957 295.406 352.147 289.377C341.416 283.899 328.243 283.753 317.155 288.284C305.227 293.158 296.638 303.24 294.811 316.144C292.532 332.24 299.78 348.167 307.848 361.64C315.614 374.609 325.029 386.781 336.469 396.723C347.55 406.353 360.616 413.944 374.988 417.317C388.623 420.517 403.329 420.234 416.583 415.508C430.258 410.617 441.656 400.868 448.607 388.116C456.366 374.083 459.075 357.869 458.808 341.984C458.493 323.223 454.534 304.65 451 286.292C447.415 267.673 443.563 249.109 439.443 230.598C437.435 221.575 435.364 212.567 433.23 203.573C432.785 201.695 429.891 202.49 430.337 204.371C438.825 240.168 446.761 276.251 452.782 312.554C455.64 329.787 457.43 347.661 453.846 364.928C450.824 379.489 444.042 393.605 432.442 403.239C410.306 421.623 377.288 419.295 353.597 405.422C340.819 397.941 329.98 387.462 321.006 375.753C311.73 363.649 303.089 349.806 299.174 334.947C297.152 327.274 296.576 319.085 298.911 311.412C300.713 305.51 304.249 300.286 309.059 296.42C318.069 289.111 330.805 286.486 342.064 288.949C354.749 291.724 364.563 301.27 369.829 312.882C375.297 325.15 375.935 339.03 371.616 351.749C367.074 365.173 357.654 376.647 346.331 384.991C333.441 394.49 318.078 399.877 302.391 402.532C267.195 408.489 231.84 400.699 196.578 399.984C180.509 399.658 164.039 400.894 148.852 406.511C135.322 411.551 123.373 420.093 114.226 431.263C94.1595 455.606 88.6048 487.909 93.3547 518.531C94.6671 526.835 96.6441 535.021 99.2666 543.008C99.861 544.837 102.759 544.054 102.159 542.211Z" fill="#E5E5E5"/>
<path d="M109.106 534.972H90.1064V549.972H109.106V534.972Z" fill="#FDC700"/>
<path d="M431.979 203.941H770.866C835.064 203.941 887.106 167.35 887.106 103.152C887.106 38.9548 835.064 12.197 770.866 12.197H664.459C536.063 12.197 431.979 75.5454 431.979 203.941Z" fill="white"/>
<path d="M770.866 206.94H428.979V203.94C428.979 142.509 452.935 91.8813 498.258 57.5298C539.977 25.9106 597.448 9.19727 664.459 9.19727H770.866C805.239 9.19727 834.255 16.7856 854.78 31.1426C878.221 47.5391 890.106 71.7666 890.106 103.152C890.106 134.619 877.952 161.173 854.958 179.944C833.633 197.353 803.769 206.94 770.866 206.94ZM434.997 200.94H770.866C838.599 200.94 884.106 161.643 884.106 103.152C884.106 23.7676 804.914 15.1973 770.866 15.1973H664.459C554.32 15.1973 436.686 64.0615 434.997 200.94Z" fill="#E5E5E5"/>
<path d="M627.172 72.1182H587.145V81.7544H627.172V72.1182Z" fill="#FDC700"/>
<path d="M765.786 72.1182H751.702V81.7544H765.786V72.1182Z" fill="#FDC700"/>
<path d="M793.954 72.1182H779.87V81.7544H793.954V72.1182Z" fill="#FDC700"/>
<path d="M736.877 72.1182H641.256V81.7544H736.877V72.1182Z" fill="#FDC700"/>
<path d="M576.768 134.383H536.74V144.019H576.768V134.383Z" fill="#FDC700"/>
<path d="M715.382 134.383H701.298V144.019H715.382V134.383Z" fill="#FDC700"/>
<path d="M743.549 134.383H729.465V144.019H743.549V134.383Z" fill="#FDC700"/>
<path d="M686.473 134.383H590.852V144.019H686.473V134.383Z" fill="#FDC700"/>
<path d="M742.067 93.6143H702.039V103.251H742.067V93.6143Z" fill="#FDC700"/>
<path d="M796.178 93.6143H756.15V103.251H796.178V93.6143Z" fill="#FDC700"/>
<path d="M824.345 93.6143H810.262V103.251H824.345V93.6143Z" fill="#FDC700"/>
<path d="M578.991 93.6143H564.907V103.251H578.991V93.6143Z" fill="#FDC700"/>
<path d="M688.696 93.6143H593.075V103.251H688.696V93.6143Z" fill="#FDC700"/>
<path d="M659.046 114.369H619.019V124.006H659.046V114.369Z" fill="#FDC700"/>
<path d="M604.935 114.369H564.907V124.006H604.935V114.369Z" fill="#FDC700"/>
<path d="M824.345 114.369H810.262V124.006H824.345V114.369Z" fill="#FDC700"/>
<path d="M796.177 114.369H782.094V124.006H796.177V114.369Z" fill="#FDC700"/>
<path d="M768.01 114.369H672.389V124.006H768.01V114.369Z" fill="#FDC700"/>
<path d="M382 550.972H1C0.734784 550.972 0.480429 550.867 0.292892 550.679C0.105356 550.492 0 550.237 0 549.972C0 549.707 0.105356 549.452 0.292892 549.265C0.480429 549.077 0.734784 548.972 1 548.972H382C382.265 548.972 382.52 549.077 382.707 549.265C382.895 549.452 383 549.707 383 549.972C383 550.237 382.895 550.492 382.707 550.679C382.52 550.867 382.265 550.972 382 550.972Z" fill="#CBCBCB"/>
<path d="M231 611.972H114C113.735 611.972 113.48 611.867 113.293 611.679C113.105 611.492 113 611.237 113 610.972C113 610.707 113.105 610.452 113.293 610.265C113.48 610.077 113.735 609.972 114 609.972H231C231.265 609.972 231.52 610.077 231.707 610.265C231.895 610.452 232 610.707 232 610.972C232 611.237 231.895 611.492 231.707 611.679C231.52 611.867 231.265 611.972 231 611.972Z" fill="#CBCBCB"/>
<path d="M120.422 337.489C121.653 335.9 122.521 334.061 122.965 332.1C123.409 330.14 123.417 328.106 122.99 326.142C122.563 324.178 121.71 322.331 120.491 320.732C119.273 319.133 117.719 317.821 115.939 316.888L123.187 268.567L100.151 279.246L96.8001 323.495C95.4304 326.59 95.2434 330.079 96.2746 333.303C97.3058 336.526 99.4836 339.259 102.395 340.984C105.307 342.709 108.75 343.306 112.073 342.662C115.395 342.017 118.366 340.177 120.422 337.489Z" fill="#FFB7B7"/>
<path d="M190.07 594.085L173.49 594.084L165.603 530.133L190.073 530.134L190.07 594.085Z" fill="#FFB7B7"/>
<path d="M194.298 610.157L140.838 610.155V609.479C140.838 603.96 143.031 598.668 146.933 594.765C150.835 590.863 156.128 588.671 161.646 588.671H161.648L194.299 588.672L194.298 610.157Z" fill="#2F2E41"/>
<path d="M249.331 555.947L233.847 561.911L203.476 505.027L226.328 496.225L249.331 555.947Z" fill="#FFB7B7"/>
<path d="M259.061 569.435L209.136 588.664L208.892 588.033C206.908 582.879 207.051 577.148 209.292 572.1C211.532 567.052 215.686 563.101 220.839 561.116L220.84 561.115L251.333 549.37L259.061 569.435Z" fill="#2F2E41"/>
<path d="M141.884 299.94L137.199 326.966L212.158 554.969L252.175 542.753L223.581 458.657L194.687 333.962L194.061 289.516L141.884 299.94Z" fill="#2F2E41"/>
<path d="M158.371 581.952L171.87 489.638L169.693 472.216L194.061 418.738L191.253 291.986L244.39 299.94L223.581 463.201L196.481 559.086L191.037 579.774L158.371 581.952Z" fill="#2F2E41"/>
<path d="M166.538 80.5362C183.376 80.5362 197.025 66.8863 197.025 50.0484C197.025 33.2104 183.376 19.5605 166.538 19.5605C149.7 19.5605 136.05 33.2104 136.05 50.0484C136.05 66.8863 149.7 80.5362 166.538 80.5362Z" fill="#FFB8B8"/>
<path d="M196.628 17.6085C191.764 9.70899 184.149 3.88794 175.251 1.26568L168.715 6.49447L171.256 0.395672C169.119 0.0696774 166.956 -0.0553146 164.796 0.0223204L158.915 7.58331L161.349 0.281308C156.246 0.915445 151.33 2.60003 146.911 5.22882C142.491 7.85761 138.664 11.3736 135.671 15.555C128.187 26.3474 128.688 41.3494 136.049 52.2262C138.07 46.0159 138.759 40.1953 140.78 33.985C142.368 34.2015 143.978 34.2093 145.568 34.0083L148.027 28.2715L148.713 33.7656C156.334 33.1016 167.637 31.6441 174.861 30.3085L174.159 26.0938L178.362 29.5962C180.575 29.0867 181.889 28.6246 181.781 28.2715C187.154 36.9334 192.478 42.466 197.851 51.1279C199.89 38.91 203.491 28.754 196.628 17.6085Z" fill="#2F2E41"/>
<path d="M225.768 88.3964C225.768 88.3964 167.707 83.2351 142.295 104.326L134.416 293.407L138.761 308.162C138.761 308.162 159.544 312.309 184.762 305.155C209.98 298 244.39 308.162 244.39 308.162L248.089 192.382L225.768 88.3964Z" fill="#CBCBCB"/>
<path d="M140.293 296.911L158.412 112.968L154.993 97.1072C154.993 97.1072 120.036 106.98 107.299 125.726L130.288 285.126V299.94L140.293 296.911Z" fill="#3F3D56"/>
<path d="M221.525 284.696C221.525 284.696 172.913 119.799 190.358 89.6705C190.358 89.6705 225.447 79.7756 242.213 91.9801L251.499 193.257C251.499 193.257 270.129 251.164 255.843 264.783L258.979 278.401C258.979 278.401 239.919 279.524 235.838 280.051C231.757 280.578 221.525 284.696 221.525 284.696Z" fill="#3F3D56"/>
<path d="M118.137 124.635L107.299 125.726C107.299 125.726 103.404 127.842 103.883 137.246C104.362 146.65 92.6377 284.458 98.4997 293.407L95.1064 305.078L119.061 311.611L120.484 299.94C120.484 299.94 130.188 269.773 131.43 262.11C132.672 254.446 118.137 124.635 118.137 124.635Z" fill="#3F3D56"/>
<path d="M237.077 282.403C237.032 280.393 237.429 278.399 238.238 276.559C239.048 274.719 240.251 273.079 241.763 271.755C243.276 270.43 245.06 269.454 246.99 268.893C248.92 268.333 250.95 268.203 252.936 268.512L275.86 225.362L288.021 247.65L264.388 285.209C263.648 288.512 261.722 291.428 258.975 293.405C256.229 295.382 252.852 296.283 249.486 295.937C246.119 295.591 242.997 294.023 240.71 291.528C238.422 289.034 237.13 285.787 237.077 282.403Z" fill="#FFB7B7"/>
<path d="M228.216 97.3302L241.124 91.9802C241.124 91.9802 262.142 103.405 263.826 114.683C265.511 125.962 307.106 198.977 307.106 198.977C307.106 198.977 292.234 263.979 278.873 267.923L271.611 275.936L251.549 263.009L258.049 256.509C258.049 256.509 257.878 222.123 263.872 215.963C263.872 215.963 247.001 172.782 239.379 168.427C231.757 164.072 228.216 97.3302 228.216 97.3302Z" fill="#3F3D56"/>
</g>
<defs>
<clipPath id="clip0_1567_1980">
<rect width="890.106" height="611.972" fill="white"/>
</clipPath>
</defs>
</svg>
