<svg width="114" height="24" viewBox="0 0 114 24" fill="none" xmlns="http://www.w3.org/2000/svg">
<path opacity="0.6" d="M12 14C13.1046 14 14 13.1046 14 12C14 10.8954 13.1046 10 12 10C10.8954 10 10 10.8954 10 12C10 13.1046 10.8954 14 12 14Z" fill="#FFBB00"/>
<path opacity="0.6" d="M17.2004 8.9999C15.5404 6.1299 11.8604 5.1499 9.00036 6.7999C6.33036 8.3399 5.30036 11.6399 6.50036 14.3999C6.59036 14.5999 6.69036 14.7999 6.80036 14.9999C8.46036 17.8699 12.1304 18.8499 15.0004 17.1999C17.6704 15.6599 18.7004 12.3599 17.5004 9.5999C17.4104 9.3999 17.3104 9.1999 17.2004 8.9999ZM12.0004 15.9999C9.79036 15.9999 8.00036 14.2099 8.00036 11.9999C8.00036 9.7899 9.79036 7.9999 12.0004 7.9999C14.2104 7.9999 16.0004 9.7899 16.0004 11.9999C16.0004 14.2099 14.2104 15.9999 12.0004 15.9999Z" fill="#FFBB00"/>
<path d="M12 8C9.79 8 8 9.79 8 12C8 14.21 9.79 16 12 16C14.21 16 16 14.21 16 12C16 9.79 14.21 8 12 8ZM12 14C10.9 14 10 13.1 10 12C10 10.9 10.9 10 12 10C13.1 10 14 10.9 14 12C14 13.1 13.1 14 12 14Z" fill="black"/>
<path d="M18.9301 8C16.7201 4.18 11.8201 2.87 8.00013 5.07C6.59013 5.89 5.52013 7.07 4.84013 8.44C4.71013 6.24 5.06013 4.04 5.86013 2H3.74013C2.20013 6.49 2.52013 11.58 5.07013 16C6.17013 17.91 7.95013 19.19 9.93013 19.72C11.9101 20.25 14.0901 20.03 16.0001 18.93C17.4101 18.11 18.4801 16.93 19.1601 15.56C19.2901 17.76 18.9501 19.96 18.1501 22H20.2601C21.7901 17.51 21.4801 12.42 18.9301 8ZM15.0001 17.2C12.1301 18.85 8.46013 17.87 6.80013 15C6.69013 14.8 6.59013 14.6 6.50013 14.4C5.30013 11.64 6.33013 8.34 9.00013 6.8C11.8601 5.15 15.5401 6.13 17.2001 9C17.3101 9.2 17.4101 9.4 17.5001 9.6C18.7001 12.36 17.6701 15.66 15.0001 17.2Z" fill="black"/>
<path d="M25.0112 18.0001V6.36375H32.8521V8.39216H27.4715V11.1649H32.4487V13.1933H27.4715V15.9717H32.8749V18.0001H25.0112Z" fill="black"/>
<path d="M36.7854 9.27284L38.3877 12.324L40.0297 9.27284H42.5127L39.9842 13.6365L42.5808 18.0001H40.1092L38.3877 14.9831L36.6945 18.0001H34.1945L36.7854 13.6365L34.2854 9.27284H36.7854Z" fill="black"/>
<path d="M43.9502 21.2728V9.27284H46.3365V10.7387H46.4445C46.5505 10.5039 46.7039 10.2653 46.9047 10.0228C47.1092 9.77663 47.3744 9.57208 47.7002 9.4092C48.0297 9.24254 48.4388 9.1592 48.9274 9.1592C49.5638 9.1592 50.1509 9.32587 50.6888 9.6592C51.2267 9.98875 51.6566 10.4869 51.9786 11.1535C52.3005 11.8164 52.4615 12.6478 52.4615 13.6478C52.4615 14.6213 52.3043 15.4433 51.9899 16.1137C51.6793 16.7804 51.2551 17.2861 50.7172 17.6308C50.1831 17.9717 49.5846 18.1422 48.9217 18.1422C48.452 18.1422 48.0524 18.0645 47.7229 17.9092C47.3971 17.7539 47.1301 17.5588 46.9217 17.324C46.7134 17.0853 46.5543 16.8448 46.4445 16.6024H46.3706V21.2728H43.9502ZM46.3195 13.6365C46.3195 14.1554 46.3914 14.6081 46.5354 14.9944C46.6793 15.3808 46.8877 15.6819 47.1604 15.8978C47.4331 16.11 47.7645 16.216 48.1547 16.216C48.5486 16.216 48.882 16.1081 49.1547 15.8922C49.4274 15.6725 49.6339 15.3694 49.774 14.9831C49.918 14.5929 49.9899 14.1441 49.9899 13.6365C49.9899 13.1327 49.9198 12.6895 49.7797 12.3069C49.6395 11.9244 49.4331 11.6251 49.1604 11.4092C48.8877 11.1933 48.5524 11.0853 48.1547 11.0853C47.7608 11.0853 47.4274 11.1895 47.1547 11.3978C46.8858 11.6062 46.6793 11.9016 46.5354 12.2842C46.3914 12.6668 46.3195 13.1175 46.3195 13.6365Z" fill="black"/>
<path d="M58.0524 18.1706C57.1547 18.1706 56.382 17.9887 55.7342 17.6251C55.0903 17.2577 54.5941 16.7387 54.2456 16.0683C53.8971 15.3941 53.7229 14.5967 53.7229 13.6762C53.7229 12.7785 53.8971 11.9906 54.2456 11.3126C54.5941 10.6346 55.0846 10.1062 55.7172 9.72738C56.3536 9.3486 57.0998 9.1592 57.9558 9.1592C58.5316 9.1592 59.0676 9.25201 59.5638 9.43761C60.0638 9.61943 60.4994 9.89405 60.8706 10.2615C61.2456 10.6289 61.5373 11.091 61.7456 11.6478C61.9539 12.2009 62.0581 12.8486 62.0581 13.591V14.2558H54.6888V12.7558H59.7797C59.7797 12.4073 59.7039 12.0986 59.5524 11.8297C59.4009 11.5607 59.1907 11.3505 58.9217 11.199C58.6566 11.0437 58.3479 10.966 57.9956 10.966C57.6282 10.966 57.3024 11.0512 57.0183 11.2217C56.738 11.3884 56.5183 11.6137 56.3592 11.8978C56.2002 12.1781 56.1187 12.4906 56.1149 12.8353V14.2615C56.1149 14.6933 56.1945 15.0664 56.3536 15.3808C56.5164 15.6952 56.7456 15.9376 57.0411 16.1081C57.3365 16.2785 57.6869 16.3637 58.0922 16.3637C58.3611 16.3637 58.6073 16.3259 58.8308 16.2501C59.0543 16.1744 59.2456 16.0607 59.4047 15.9092C59.5638 15.7577 59.685 15.5721 59.7683 15.3524L62.007 15.5001C61.8933 16.038 61.6604 16.5077 61.3081 16.9092C60.9596 17.3069 60.5089 17.6175 59.9558 17.841C59.4066 18.0607 58.7721 18.1706 58.0524 18.1706Z" fill="black"/>
<path d="M63.6376 18.0001V9.27284H65.9842V10.7956H66.0751C66.2342 10.2539 66.5013 9.84481 66.8763 9.56829C67.2513 9.28799 67.6831 9.14784 68.1717 9.14784C68.293 9.14784 68.4236 9.15541 68.5638 9.17057C68.7039 9.18572 68.827 9.20655 68.9331 9.23307V11.3808C68.8195 11.3467 68.6623 11.3164 68.4615 11.2899C68.2608 11.2634 68.077 11.2501 67.9104 11.2501C67.5543 11.2501 67.2361 11.3278 66.9558 11.4831C66.6793 11.6346 66.4596 11.8467 66.2967 12.1194C66.1377 12.3922 66.0581 12.7066 66.0581 13.0626V18.0001H63.6376Z" fill="black"/>
<path d="M70.1845 18.0001V9.27284H72.605V18.0001H70.1845ZM71.4004 8.14784C71.0406 8.14784 70.7319 8.02852 70.4743 7.78988C70.2205 7.54746 70.0936 7.25769 70.0936 6.92057C70.0936 6.58723 70.2205 6.30125 70.4743 6.06261C70.7319 5.82019 71.0406 5.69897 71.4004 5.69897C71.7603 5.69897 72.0671 5.82019 72.3209 6.06261C72.5785 6.30125 72.7073 6.58723 72.7073 6.92057C72.7073 7.25769 72.5785 7.54746 72.3209 7.78988C72.0671 8.02852 71.7603 8.14784 71.4004 8.14784Z" fill="black"/>
<path d="M74.5439 18.0001V9.27284H76.8507V10.8126H76.953C77.1348 10.3012 77.4378 9.89784 77.8621 9.60238C78.2863 9.30693 78.7939 9.1592 79.3848 9.1592C79.9833 9.1592 80.4928 9.30882 80.9132 9.60807C81.3337 9.90352 81.614 10.305 81.7541 10.8126H81.845C82.0231 10.3126 82.345 9.91299 82.8109 9.61375C83.2806 9.31072 83.8356 9.1592 84.4757 9.1592C85.2901 9.1592 85.9511 9.41867 86.4587 9.93761C86.97 10.4528 87.2257 11.1838 87.2257 12.1308V18.0001H84.8109V12.6081C84.8109 12.1232 84.6822 11.7596 84.4246 11.5172C84.167 11.2747 83.845 11.1535 83.4587 11.1535C83.0193 11.1535 82.6765 11.2937 82.4303 11.574C82.1841 11.8505 82.0609 12.216 82.0609 12.6706V18.0001H79.7144V12.5569C79.7144 12.1289 79.5912 11.788 79.345 11.5342C79.1026 11.2804 78.7825 11.1535 78.3848 11.1535C78.1159 11.1535 77.8734 11.2217 77.6575 11.3581C77.4454 11.4906 77.2769 11.6781 77.1519 11.9206C77.0269 12.1592 76.9644 12.4395 76.9644 12.7615V18.0001H74.5439Z" fill="black"/>
<path d="M93.1149 18.1706C92.2172 18.1706 91.4445 17.9887 90.7967 17.6251C90.1528 17.2577 89.6566 16.7387 89.3081 16.0683C88.9596 15.3941 88.7854 14.5967 88.7854 13.6762C88.7854 12.7785 88.9596 11.9906 89.3081 11.3126C89.6566 10.6346 90.1471 10.1062 90.7797 9.72738C91.4161 9.3486 92.1623 9.1592 93.0183 9.1592C93.5941 9.1592 94.1301 9.25201 94.6263 9.43761C95.1263 9.61943 95.5619 9.89405 95.9331 10.2615C96.3081 10.6289 96.5998 11.091 96.8081 11.6478C97.0164 12.2009 97.1206 12.8486 97.1206 13.591V14.2558H89.7513V12.7558H94.8422C94.8422 12.4073 94.7664 12.0986 94.6149 11.8297C94.4634 11.5607 94.2532 11.3505 93.9842 11.199C93.7191 11.0437 93.4104 10.966 93.0581 10.966C92.6907 10.966 92.3649 11.0512 92.0808 11.2217C91.8005 11.3884 91.5808 11.6137 91.4217 11.8978C91.2627 12.1781 91.1812 12.4906 91.1774 12.8353V14.2615C91.1774 14.6933 91.257 15.0664 91.4161 15.3808C91.5789 15.6952 91.8081 15.9376 92.1036 16.1081C92.399 16.2785 92.7494 16.3637 93.1547 16.3637C93.4236 16.3637 93.6698 16.3259 93.8933 16.2501C94.1168 16.1744 94.3081 16.0607 94.4672 15.9092C94.6263 15.7577 94.7475 15.5721 94.8308 15.3524L97.0695 15.5001C96.9558 16.038 96.7229 16.5077 96.3706 16.9092C96.0221 17.3069 95.5714 17.6175 95.0183 17.841C94.4691 18.0607 93.8346 18.1706 93.1149 18.1706Z" fill="black"/>
<path d="M101.121 12.9547V18.0001H98.7001V9.27284H101.007V10.8126H101.109C101.302 10.305 101.626 9.90352 102.081 9.60807C102.535 9.30882 103.087 9.1592 103.734 9.1592C104.34 9.1592 104.869 9.29178 105.319 9.55693C105.77 9.82208 106.121 10.2009 106.371 10.6933C106.621 11.1819 106.746 11.7653 106.746 12.4433V18.0001H104.325V12.8751C104.329 12.341 104.193 11.9244 103.916 11.6251C103.64 11.3221 103.259 11.1706 102.774 11.1706C102.448 11.1706 102.16 11.2406 101.91 11.3808C101.664 11.5209 101.471 11.7255 101.331 11.9944C101.194 12.2596 101.124 12.5797 101.121 12.9547Z" fill="black"/>
<path d="M113.295 9.27284V11.091H108.04V9.27284H113.295ZM109.233 7.18193H111.653V15.3183C111.653 15.5418 111.687 15.716 111.756 15.841C111.824 15.9622 111.918 16.0475 112.04 16.0967C112.165 16.1459 112.309 16.1706 112.471 16.1706C112.585 16.1706 112.699 16.1611 112.812 16.1422C112.926 16.1194 113.013 16.1024 113.074 16.091L113.454 17.8922C113.333 17.93 113.163 17.9736 112.943 18.0228C112.723 18.0759 112.456 18.1081 112.142 18.1194C111.559 18.1422 111.047 18.0645 110.608 17.8865C110.172 17.7084 109.833 17.4319 109.591 17.0569C109.348 16.6819 109.229 16.2084 109.233 15.6365V7.18193Z" fill="black"/>
</svg>
